<?xml version="1.0"?>
<svg width="744.09448819" height="300.3622047" xmlns="http://www.w3.org/2000/svg" xmlns:svg="http://www.w3.org/2000/svg">
 <defs>
  <linearGradient y2="-0.69111" y1="-0.69111" x2="1.231885" x1="-0.191409" id="linearGradient3997">
   <stop stop-color="#ccc" offset="0"/>
   <stop stop-opacity="0" stop-color="#ccc" offset="1"/>
  </linearGradient>
  <linearGradient y2="-0.863636" y1="0.5" x2="1.28" x1="0" id="linearGradient4004">
   <stop offset="0"/>
   <stop stop-opacity="0" offset="1"/>
  </linearGradient>
 </defs>
 <g>
  <title>Layer 1</title>
  <g id="svg_1" transform="matrix(0.6,0,0,0.6,21.17253,298.62552) ">
   <g id="svg_2">
    <path id="svg_3" stroke-width="1.10145" stroke="#000" fill="none" d="m232.90492,-417.749565c51.74163,-8.33363 65.21598,10.29099 73.69652,32.43361"/>
    <path id="svg_4" stroke-width="1.37883" stroke="#000" fill="none" d="m160.46296,-393.637135c79.00237,-8.55312 99.57584,10.56201 112.52446,33.2878"/>
    <path id="svg_5" stroke-width="1.26021" stroke="#000" fill="none" d="m191.43402,-407.904835c65.77389,-8.5818 82.90247,10.59744 93.68292,33.39944"/>
   </g>
   <g id="svg_6">
    <path id="svg_7" stroke-width="2" stroke="#fff" d="m169.6518,-130.910686c7.79438,37.06834 6.43603,76.43015 4.79312,115.86326c-13.47251,-3.18437 -26.12897,-9.05518 -38.11553,-17.13149c-8.17635,-35.43587 -10.05333,-68.95828 -10.13456,-101.93523"/>
    <path id="svg_8" stroke-width="1.67307" stroke="#fff" d="m146.16358,-234.770196c30.36692,18.67253 59.22028,44.64476 88.02659,70.84394c-7.1165,6.56057 -15.94756,10.88725 -26.18624,13.38001c-29.28493,-17.38773 -54.92603,-37.57221 -79.52838,-58.55396"/>
    <g id="svg_9" transform="matrix(-0.96328,0.26851,-0.26851,-0.96328,669.82419,818.47128) ">
     <path id="svg_10" stroke-width="2" stroke="#fff" d="m144.826686,1088.463897l-0.63805,-16.16616l62.76278,-2.47715l-0.20031,19.05656l-61.92442,-0.41325z"/>
     <path id="svg_11" stroke-width="2" stroke="#000" fill="#fff" d="m410.841376,1090.172097l-202.71032,-1.90338l0,-18.08214l63.71179,2.04606c20.42793,2.1386 108.58562,5.6181 130.29757,7.7567c4.72165,2.91499 17.49028,8.42349 8.70093,10.18273l0,0.00004l0.00003,-0.00001z"/>
    </g>
    <path id="svg_12" stroke-width="2" stroke="#fff" d="m150.29148,-272.868336c17.66289,9.90047 34.52484,21.51528 47.23736,42.01158c-3.63284,55.31399 -13.22936,104.53849 -33.77076,142.58721c-31.88599,-7.07667 -59.57322,-23.14036 -83.06172,-48.19107c17.88196,-47.0857 33.27325,-94.92868 69.59512,-136.40772z"/>
    <path id="svg_13" stroke-width="1.67307" stroke="#fff" d="m164.42616,-236.726676c4.79779,35.32414 2.98943,74.10303 0.97569,112.98934c-9.5848,-1.34802 -18.52795,-5.43799 -26.94435,-11.77902c-5.10608,-33.67295 -5.73958,-66.29929 -5.09808,-98.62726"/>
    <path id="svg_14" stroke-width="2" stroke="#fff" d="m138.33929,-128.256786c4.50743,37.60981 -0.304,76.70005 -5.40515,115.83633c-13.14062,-4.35575 -25.23234,-11.31586 -36.46296,-20.41407c-5.03133,-36.0172 -3.95578,-69.57489 -1.13935,-102.43145"/>
    <g id="svg_15" transform="matrix(0.61383,0.78944,-0.78944,0.61383,428.60865,-26.01221) ">
     <path id="svg_16" stroke-width="2" stroke="#fff" d="m-411.850225,-4.706635c1.03664,-6.74866 5.79178,-9.77881 10.38039,-12.9755c4.19981,16.25381 12.62697,24.05294 19.46324,35.03383c-10.21918,-6.6293 -21.60546,-10.14634 -29.84363,-22.05833z"/>
     <path id="svg_17" stroke-width="2" stroke="#fff" d="m-398.094905,-17.436015c4.46915,-5.16195 10.10758,-5.19679 15.69365,-5.46124c-5.09424,15.99604 -2.11007,27.08379 -2.16607,40.01868c-5.12391,-11.05101 -12.8922,-20.08818 -13.52758,-34.55744z"/>
     <path id="svg_18" stroke-width="2" stroke="#fff" d="m-394.903045,21.785215c-4.45155,-16.38901 76.88473,-38.01732 81.34406,-21.22634c14.42698,29.06874 0.35639,54.2845 -14.56909,65.91335c-23.97316,-1.0682 -49.93103,-2.3894 -66.77497,-44.68701z"/>
     <path id="svg_19" stroke="#000" fill="none" d="m-396.213755,-23.521375z"/>
     <path id="svg_20" stroke-width="2" stroke="#fff" fill="#fff" d="m-317.770536,12.822362c0.609925,2.388814 -12.866191,7.892366 -30.099751,12.292534s-31.698568,6.030697 -32.308493,3.641883s12.866201,-7.892369 30.09976,-12.292536s31.698558,-6.030695 32.308483,-3.641881z"/>
     <path id="svg_21" d="m-328.250811,17.281443c0,1.584929 -1.855863,2.86975 -4.145189,2.86975s-4.145189,-1.284837 -4.145189,-2.86975s1.855863,-2.86975 4.145189,-2.86975s4.145189,1.284837 4.145189,2.86975z"/>
     <path id="svg_22" d="m-341.324151,20.470063c0,1.584929 -1.855863,2.86975 -4.145189,2.86975s-4.145189,-1.284837 -4.145189,-2.86975s1.855863,-2.86975 4.145189,-2.86975s4.145189,1.284837 4.145189,2.86975z"/>
    </g>
   </g>
   <path id="svg_23" stroke-width="7" stroke-linecap="round" stroke="#000" fill="none" d="m326.982381,-486.189117l2.54194,465.17459"/>
   <path id="svg_24" stroke-width="5.13307" stroke-linecap="round" stroke="#000" fill="none" d="m313.919851,-463.668517l144.21545,-4.40888"/>
   <path id="svg_25" stroke-width="5.13307" stroke-linecap="round" stroke="#000" fill="none" d="m315.919851,-173.668517l144.21545,-4.40888"/>
   <path id="svg_26" stroke-width="1.04053" stroke="#000" fill="url(#linearGradient3997)" d="m342.248911,-462.245457l106.7334,-2.75287c78.12726,108.37976 -40.21121,191.17161 2.54126,286.29767l-106.73339,5.50572c-67.60396,-96.01079 39.84877,-179.82643 -2.54127,-289.05052z"/>
   <g id="svg_27">
    <path id="svg_28" d="m370.156358,-404.173188c3.31597,0.56705 6.38685,1.96684 9.55565,3.02803c3.6658,1.54763 7.55608,2.1627 11.48947,2.50845c3.94401,0.25379 7.89922,0.25336 11.84974,0.25219c4.1189,-0.0338 8.23774,-0.006 12.35665,-0.005c4.38677,0.0752 8.76519,0.0939 13.09985,-0.64611c3.08215,-0.46997 5.76037,-1.9887 8.58896,-3.1637c2.31849,-0.77808 4.755,-0.88389 7.17526,-0.97199c2.6157,0.0855 5.19436,-0.36156 7.79118,-0.61558c2.46568,-0.21076 4.88798,-0.75526 7.27707,-1.38442c1.43816,-0.32217 2.79162,-0.8617 4.23545,-1.16968l-10.79013,8.25272c-1.40192,0.40664 -2.7919,0.85763 -4.22213,1.1594c-2.41211,0.57641 -4.86777,0.99999 -7.3423,1.18648c-2.62419,0.27133 -5.24216,0.61206 -7.88681,0.5966c-2.34444,0.13596 -4.69583,0.3915 -6.8704,1.34705c-2.77304,1.21638 -5.56165,2.35059 -8.59966,2.72712c-4.36158,0.49015 -8.73968,0.4494 -13.12374,0.43459c-4.13621,0.0119 -8.27229,0.0617 -12.40862,0.0392c-3.98271,-0.01 -7.97346,0.0229 -11.9436,-0.34548c-3.98948,-0.44565 -7.91428,-1.19991 -11.63454,-2.76784c-3.16506,-1.05679 -6.35879,-2.45357 -9.75662,-2.35394l11.15927,-8.10768l0,-0.00041z"/>
    <path id="svg_29" d="m372.291768,-384.737658c3.1212,1.25511 5.82684,3.27235 8.69975,4.97934c3.25587,2.28748 6.92825,3.71092 10.6997,4.88023c3.80126,1.08168 7.6672,1.91725 11.52872,2.7511c4.03299,0.83755 8.05289,1.7353 12.07854,2.60687c4.27176,1.0007 8.54731,1.94442 12.94045,2.13732c3.11185,0.19211 6.05057,-0.72623 9.06361,-1.27683c2.43056,-0.27045 4.83439,0.14112 7.21859,0.56657c2.53854,0.63643 5.15343,0.74451 7.74527,1.0451c2.45452,0.31516 4.93718,0.29494 7.40528,0.18497c1.47376,-0.0109 2.91068,-0.25219 4.38699,-0.24804l-12.29068,5.78563c-1.4562,0.10114 -2.9101,0.24815 -4.3718,0.2408c-2.47945,0.0535 -4.96916,-0.0515 -7.4272,-0.39222c-2.62225,-0.28946 -5.25309,-0.50978 -7.83472,-1.08387c-2.32021,-0.36264 -4.67249,-0.60988 -6.9999,-0.13554c-2.96749,0.60278 -5.93283,1.12195 -8.98179,0.84785c-4.36664,-0.44281 -8.63721,-1.40801 -12.9191,-2.34912c-4.04527,-0.86261 -8.09843,-1.68815 -12.13656,-2.58442c-3.89061,-0.85157 -7.79816,-1.66292 -11.60074,-2.86212c-3.80515,-1.27881 -7.48186,-2.84559 -10.78666,-5.16443c-2.87019,-1.70189 -5.69654,-3.74216 -9.03866,-4.36295l12.62083,-5.56584l0.00008,-0.0004z"/>
    <path id="svg_30" d="m382.248368,-408.809458c0.94252,3.22937 2.68429,6.12004 4.10088,9.1467c1.95668,3.46478 3.01258,7.25921 3.80585,11.12726c0.70314,3.88911 1.155,7.81843 1.60559,11.74316c0.43743,4.09575 0.93605,8.18439 1.40805,12.27617c0.57635,4.34939 1.09561,8.69695 0.85614,13.0878c-0.11444,3.11568 -1.31694,5.95 -2.16078,8.8944c-0.50785,2.39225 -0.33434,4.82488 -0.1451,7.23934c0.38405,2.58876 0.2348,5.20163 0.2794,7.81046c0.0726,2.47361 -0.19135,4.94229 -0.54318,7.38765c-0.1556,1.46557 -0.53682,2.87185 -0.67767,4.34142l6.9647,-11.66307c0.24366,-1.43922 0.53274,-2.87166 0.66898,-4.32701c0.2968,-2.4622 0.43679,-4.95019 0.33909,-7.42982c-0.0305,-2.638 0.009,-5.27776 -0.3092,-7.90329c-0.13302,-2.34461 -0.14805,-4.7098 0.55256,-6.97937c0.8913,-2.89395 1.69918,-5.79397 1.72584,-8.85511c-0.0118,-4.38902 -0.55296,-8.73374 -1.069,-13.08734c-0.46117,-4.11044 -0.88467,-8.22508 -1.38002,-12.33171c-0.46537,-3.95544 -0.88904,-7.92377 -1.709,-11.82574c-0.89893,-3.91235 -2.09706,-7.72515 -4.08013,-11.24171c-1.41179,-3.02345 -3.16462,-6.03651 -3.45419,-9.42344l-6.7784,12.0132l-0.00041,0.00005z"/>
    <path id="svg_31" d="m417.712698,-419.075448c0.94252,3.22937 2.68429,6.12004 4.10088,9.1467c1.95668,3.46478 3.01258,7.25921 3.80585,11.12726c0.70314,3.88911 1.155,7.81843 1.60559,11.74316c0.43743,4.09575 0.93605,8.18439 1.40805,12.27617c0.57635,4.34939 1.09561,8.69695 0.85614,13.0878c-0.11444,3.11568 -1.31694,5.95 -2.16078,8.8944c-0.50785,2.39225 -0.33434,4.82488 -0.1451,7.23934c0.38405,2.58876 0.2348,5.20163 0.2794,7.81046c0.0726,2.47361 -0.19135,4.94229 -0.54318,7.38765c-0.1556,1.46557 -0.53682,2.87185 -0.67767,4.34142l6.9647,-11.66307c0.24366,-1.43922 0.53274,-2.87166 0.66898,-4.32701c0.2968,-2.4622 0.43679,-4.95019 0.33909,-7.42982c-0.0305,-2.638 0.009,-5.27776 -0.3092,-7.90329c-0.13302,-2.34461 -0.14805,-4.7098 0.55256,-6.97937c0.8913,-2.89395 1.69918,-5.79397 1.72584,-8.85511c-0.0118,-4.38902 -0.55296,-8.73374 -1.069,-13.08734c-0.46117,-4.11044 -0.88467,-8.22508 -1.38002,-12.33171c-0.46537,-3.95544 -0.88904,-7.92377 -1.709,-11.82574c-0.89893,-3.91235 -2.09706,-7.72515 -4.08013,-11.24171c-1.41179,-3.02345 -3.16462,-6.03651 -3.45419,-9.42344l-6.7784,12.0132l-0.00041,0.00005z"/>
   </g>
   <g id="svg_32" transform="matrix(-1,0,0,1,1005.8919,150.25676) ">
    <path id="svg_33" d="m570.724709,-438.704247c3.31597,0.56705 6.38685,1.96684 9.55565,3.02803c3.6658,1.54763 7.55608,2.1627 11.48947,2.50845c3.94401,0.25379 7.89922,0.25336 11.84974,0.25219c4.1189,-0.0338 8.23774,-0.006 12.35665,-0.005c4.38677,0.0752 8.76519,0.0939 13.09985,-0.64611c3.08215,-0.46997 5.76037,-1.9887 8.58896,-3.1637c2.31849,-0.77808 4.755,-0.88389 7.17526,-0.97199c2.6157,0.0855 5.19436,-0.36156 7.79118,-0.61558c2.46568,-0.21076 4.88798,-0.75526 7.27707,-1.38442c1.43816,-0.32217 2.79162,-0.8617 4.23545,-1.16968l-10.79013,8.25272c-1.40192,0.40664 -2.7919,0.85763 -4.22213,1.1594c-2.41211,0.57641 -4.86777,0.99999 -7.3423,1.18648c-2.62419,0.27133 -5.24216,0.61206 -7.88681,0.5966c-2.34444,0.13596 -4.69583,0.3915 -6.8704,1.34705c-2.77304,1.21638 -5.56165,2.35059 -8.59966,2.72712c-4.36158,0.49015 -8.73968,0.4494 -13.12374,0.43459c-4.13621,0.0119 -8.27229,0.0617 -12.40862,0.0392c-3.98271,-0.01 -7.97346,0.0229 -11.9436,-0.34548c-3.98948,-0.44565 -7.91428,-1.19991 -11.63454,-2.76784c-3.16506,-1.05679 -6.35879,-2.45357 -9.75662,-2.35394l11.15927,-8.10768l0,-0.00041z"/>
    <path id="svg_34" d="m572.860119,-419.268717c3.1212,1.25511 5.82684,3.27235 8.69975,4.97934c3.25587,2.28748 6.92825,3.71092 10.6997,4.88023c3.80126,1.08168 7.6672,1.91725 11.52872,2.7511c4.03299,0.83755 8.05289,1.7353 12.07854,2.60687c4.27176,1.0007 8.54731,1.94442 12.94045,2.13732c3.11185,0.19211 6.05057,-0.72623 9.06361,-1.27683c2.43056,-0.27045 4.83439,0.14112 7.21859,0.56657c2.53854,0.63643 5.15343,0.74451 7.74527,1.0451c2.45452,0.31516 4.93718,0.29494 7.40528,0.18497c1.47376,-0.0109 2.91068,-0.25219 4.38699,-0.24804l-12.29068,5.78563c-1.4562,0.10114 -2.9101,0.24815 -4.3718,0.2408c-2.47945,0.0535 -4.96916,-0.0515 -7.4272,-0.39222c-2.62225,-0.28946 -5.25309,-0.50978 -7.83472,-1.08387c-2.32021,-0.36264 -4.67249,-0.60988 -6.9999,-0.13554c-2.96749,0.60278 -5.93283,1.12195 -8.98179,0.84785c-4.36664,-0.44281 -8.63721,-1.40801 -12.9191,-2.34912c-4.04527,-0.86261 -8.09843,-1.68815 -12.13656,-2.58442c-3.89061,-0.85157 -7.79816,-1.66292 -11.60074,-2.86212c-3.80515,-1.27881 -7.48186,-2.84559 -10.78666,-5.16443c-2.87019,-1.70189 -5.69654,-3.74216 -9.03866,-4.36295l12.62083,-5.56584l0.00008,-0.0004z"/>
    <path id="svg_35" d="m582.816719,-443.340517c0.94252,3.22937 2.68429,6.12004 4.10088,9.1467c1.95668,3.46478 3.01258,7.25921 3.80585,11.12726c0.70314,3.88911 1.155,7.81843 1.60559,11.74316c0.43743,4.09575 0.93605,8.18439 1.40805,12.27617c0.57635,4.34939 1.09561,8.69695 0.85614,13.0878c-0.11444,3.11568 -1.31694,5.95 -2.16078,8.8944c-0.50785,2.39225 -0.33434,4.82488 -0.1451,7.23934c0.38405,2.58876 0.2348,5.20163 0.2794,7.81046c0.0726,2.47361 -0.19135,4.94229 -0.54318,7.38765c-0.1556,1.46557 -0.53682,2.87185 -0.67767,4.34142l6.9647,-11.66307c0.24366,-1.43922 0.53274,-2.87166 0.66898,-4.32701c0.2968,-2.4622 0.43679,-4.95019 0.33909,-7.42982c-0.0305,-2.638 0.009,-5.27776 -0.3092,-7.90329c-0.13302,-2.34461 -0.14805,-4.7098 0.55256,-6.97937c0.8913,-2.89395 1.69918,-5.79397 1.72584,-8.85511c-0.0118,-4.38902 -0.55296,-8.73374 -1.069,-13.08734c-0.46117,-4.11044 -0.88467,-8.22508 -1.38002,-12.33171c-0.46537,-3.95544 -0.88904,-7.92377 -1.709,-11.82574c-0.89893,-3.91235 -2.09706,-7.72515 -4.08013,-11.24171c-1.41179,-3.02345 -3.16462,-6.03651 -3.45419,-9.42344l-6.7784,12.0132l-0.00041,0.00005z"/>
    <path id="svg_36" d="m618.281049,-453.606507c0.94252,3.22937 2.68429,6.12004 4.10088,9.1467c1.95668,3.46478 3.01258,7.25921 3.80585,11.12726c0.70314,3.88911 1.155,7.81843 1.60559,11.74316c0.43743,4.09575 0.93605,8.18439 1.40805,12.27617c0.57635,4.34939 1.09561,8.69695 0.85614,13.0878c-0.11444,3.11568 -1.31694,5.95 -2.16078,8.8944c-0.50785,2.39225 -0.33434,4.82488 -0.1451,7.23934c0.38405,2.58876 0.2348,5.20163 0.2794,7.81046c0.0726,2.47361 -0.19135,4.94229 -0.54318,7.38765c-0.1556,1.46557 -0.53682,2.87185 -0.67767,4.34142l6.9647,-11.66307c0.24366,-1.43922 0.53274,-2.87166 0.66898,-4.32701c0.2968,-2.4622 0.43679,-4.95019 0.33909,-7.42982c-0.0305,-2.638 0.009,-5.27776 -0.3092,-7.90329c-0.13302,-2.34461 -0.14805,-4.7098 0.55256,-6.97937c0.8913,-2.89395 1.69918,-5.79397 1.72584,-8.85511c-0.0118,-4.38902 -0.55296,-8.73374 -1.069,-13.08734c-0.46117,-4.11044 -0.88467,-8.22508 -1.38002,-12.33171c-0.46537,-3.95544 -0.88904,-7.92377 -1.709,-11.82574c-0.89893,-3.91235 -2.09706,-7.72515 -4.08013,-11.24171c-1.41179,-3.02345 -3.16462,-6.03651 -3.45419,-9.42344l-6.7784,12.0132l-0.00041,0.00005z"/>
   </g>
  </g>
  <g id="svg_37" transform="matrix(-0.216,0,0,0.216,672.59933,430.45118) ">
   <g id="svg_38">
    <path id="svg_39" stroke-width="1.10145" stroke="#000" fill="none" d="m342.040727,-1602.934685c51.74163,-8.33363 65.21598,10.29099 73.69652,32.43361"/>
    <path id="svg_40" stroke-width="1.37883" stroke="#000" fill="none" d="m269.598767,-1578.822255c79.00237,-8.55312 99.57584,10.56201 112.52446,33.2878"/>
    <path id="svg_41" stroke-width="1.26021" stroke="#000" fill="none" d="m300.569827,-1593.089955c65.77389,-8.5818 82.90247,10.59744 93.68292,33.39944"/>
   </g>
   <g id="svg_42">
    <path id="svg_43" stroke-width="2" stroke="#fff" d="m278.787607,-1316.095805c7.79438,37.06834 6.43603,76.43015 4.79312,115.86326c-13.47251,-3.18437 -26.12897,-9.05518 -38.11553,-17.13149c-8.17635,-35.43587 -10.05333,-68.95828 -10.13456,-101.93523"/>
    <path id="svg_44" stroke-width="1.67307" stroke="#fff" d="m255.299387,-1419.955315c30.36692,18.67253 59.22028,44.64476 88.02659,70.84394c-7.1165,6.56057 -15.94756,10.88725 -26.18624,13.38001c-29.28493,-17.38773 -54.92603,-37.57221 -79.52838,-58.55396"/>
    <g id="svg_45" transform="matrix(-0.96328,0.26851,-0.26851,-0.96328,669.82419,818.47128) ">
     <path id="svg_46" stroke-width="2" stroke="#fff" d="m-278.533177,2200.818328l-0.63805,-16.16616l62.76278,-2.47715l-0.20031,19.05656l-61.92442,-0.41325z"/>
     <path id="svg_47" stroke-width="2" stroke="#000" fill="#fff" d="m-12.518487,2202.526528l-202.71032,-1.90338l0,-18.08214l63.71179,2.04606c20.42793,2.1386 108.58562,5.6181 130.29757,7.7567c4.72165,2.91499 17.49028,8.42349 8.70093,10.18273l0,0.00004l0.00003,-0.00001z"/>
    </g>
    <path id="svg_48" stroke-width="2" stroke="#fff" d="m259.427287,-1458.053455c17.66289,9.90047 34.52484,21.51528 47.23736,42.01158c-3.63284,55.31399 -13.22936,104.53849 -33.77076,142.58721c-31.88599,-7.07667 -59.57322,-23.14036 -83.06172,-48.19107c17.88196,-47.0857 33.27325,-94.92868 69.59512,-136.40772z"/>
    <path id="svg_49" stroke-width="1.67307" stroke="#fff" d="m273.561967,-1421.911795c4.79779,35.32414 2.98943,74.10303 0.97569,112.98934c-9.5848,-1.34802 -18.52795,-5.43799 -26.94435,-11.77902c-5.10608,-33.67295 -5.73958,-66.29929 -5.09808,-98.62726"/>
    <path id="svg_50" stroke-width="2" stroke="#fff" d="m247.475097,-1313.441905c4.50743,37.60981 -0.304,76.70005 -5.40515,115.83633c-13.14062,-4.35575 -25.23234,-11.31586 -36.46296,-20.41407c-5.03133,-36.0172 -3.95578,-69.57489 -1.13935,-102.43145"/>
    <g id="svg_51" transform="matrix(0.61383,0.78944,-0.78944,0.61383,428.60865,-26.01221) ">
     <path id="svg_52" stroke-width="2" stroke="#fff" d="m-1280.489446,-818.362702c1.03664,-6.74866 5.79178,-9.77881 10.38039,-12.9755c4.19981,16.25381 12.62697,24.05294 19.46324,35.03383c-10.21918,-6.6293 -21.60546,-10.14634 -29.84363,-22.05833z"/>
     <path id="svg_53" stroke-width="2" stroke="#fff" d="m-1266.734126,-831.092082c4.46915,-5.16195 10.10758,-5.19679 15.69365,-5.46124c-5.09424,15.99604 -2.11007,27.08379 -2.16607,40.01868c-5.12391,-11.05101 -12.8922,-20.08818 -13.52758,-34.55744z"/>
     <path id="svg_54" stroke-width="2" stroke="#fff" d="m-1263.542266,-791.870852c-4.45155,-16.38901 76.88473,-38.01732 81.34406,-21.22634c14.42698,29.06874 0.35639,54.2845 -14.56909,65.91335c-23.97316,-1.0682 -49.93103,-2.3894 -66.77497,-44.68701z"/>
     <path id="svg_55" stroke="#000" fill="none" d="m-1264.852976,-837.177442z"/>
     <path id="svg_56" stroke-width="2" stroke="#fff" fill="#fff" d="m-1186.409757,-800.833705c0.609925,2.388814 -12.866191,7.892366 -30.099751,12.292534s-31.698568,6.030697 -32.308493,3.641883s12.866201,-7.892369 30.09976,-12.292536s31.698558,-6.030695 32.308483,-3.641881z"/>
     <path id="svg_57" d="m-1196.890032,-796.374624c0,1.584929 -1.855863,2.86975 -4.145189,2.86975s-4.145189,-1.284837 -4.145189,-2.86975s1.855863,-2.86975 4.145189,-2.86975s4.145189,1.284837 4.145189,2.86975z"/>
     <path id="svg_58" d="m-1209.963372,-793.186004c0,1.584929 -1.855863,2.86975 -4.145189,2.86975s-4.145189,-1.284837 -4.145189,-2.86975s1.855863,-2.86975 4.145189,-2.86975s4.145189,1.284837 4.145189,2.86975z"/>
    </g>
   </g>
   <path id="svg_59" stroke-width="7" stroke-linecap="round" stroke="#000" fill="none" d="m436.118188,-1671.374237l2.54194,465.17459"/>
   <path id="svg_60" stroke-width="5.13307" stroke-linecap="round" stroke="#000" fill="none" d="m423.055658,-1648.853637l144.21545,-4.40888"/>
   <path id="svg_61" stroke-width="5.13307" stroke-linecap="round" stroke="#000" fill="none" d="m425.055658,-1358.853637l144.21545,-4.40888"/>
   <path id="svg_62" stroke-width="1.04053" stroke="#000" fill="url(#linearGradient3997)" d="m451.384718,-1647.430577l106.7334,-2.75287c78.12726,108.37976 -40.21121,191.17161 2.54126,286.29767l-106.73339,5.50572c-67.60396,-96.01079 39.84877,-179.82643 -2.54127,-289.05052z"/>
   <g id="svg_63">
    <path id="svg_64" d="m479.292165,-1589.358307c3.31597,0.56705 6.38685,1.96684 9.55565,3.02803c3.6658,1.54763 7.55608,2.1627 11.48947,2.50845c3.94401,0.25379 7.89922,0.25336 11.84974,0.25219c4.1189,-0.0338 8.23774,-0.006 12.35665,-0.005c4.38677,0.0752 8.76519,0.0939 13.09985,-0.64611c3.08215,-0.46997 5.76037,-1.9887 8.58896,-3.1637c2.31849,-0.77808 4.755,-0.88389 7.17526,-0.97199c2.6157,0.0855 5.19436,-0.36156 7.79118,-0.61558c2.46568,-0.21076 4.88798,-0.75526 7.27707,-1.38442c1.43816,-0.32217 2.79162,-0.8617 4.23545,-1.16968l-10.79013,8.25272c-1.40192,0.40664 -2.7919,0.85763 -4.22213,1.1594c-2.41211,0.57641 -4.86777,0.99999 -7.3423,1.18648c-2.62419,0.27133 -5.24216,0.61206 -7.88681,0.5966c-2.34444,0.13596 -4.69583,0.3915 -6.8704,1.34705c-2.77304,1.21638 -5.56165,2.35059 -8.59966,2.72712c-4.36158,0.49015 -8.73968,0.4494 -13.12374,0.43459c-4.13621,0.0119 -8.27229,0.0617 -12.40862,0.0392c-3.98271,-0.01 -7.97346,0.0229 -11.9436,-0.34548c-3.98948,-0.44565 -7.91428,-1.19991 -11.63454,-2.76784c-3.16506,-1.05679 -6.35879,-2.45357 -9.75662,-2.35394l11.15927,-8.10768l0,-0.00041z"/>
    <path id="svg_65" d="m481.427575,-1569.922777c3.1212,1.25511 5.82684,3.27235 8.69975,4.97934c3.25587,2.28748 6.92825,3.71092 10.6997,4.88023c3.80126,1.08168 7.6672,1.91725 11.52872,2.7511c4.03299,0.83755 8.05289,1.7353 12.07854,2.60687c4.27176,1.0007 8.54731,1.94442 12.94045,2.13732c3.11185,0.19211 6.05057,-0.72623 9.06361,-1.27683c2.43056,-0.27045 4.83439,0.14112 7.21859,0.56657c2.53854,0.63643 5.15343,0.74451 7.74527,1.0451c2.45452,0.31516 4.93718,0.29494 7.40528,0.18497c1.47376,-0.0109 2.91068,-0.25219 4.38699,-0.24804l-12.29068,5.78563c-1.4562,0.10114 -2.9101,0.24815 -4.3718,0.2408c-2.47945,0.0535 -4.96916,-0.0515 -7.4272,-0.39222c-2.62225,-0.28946 -5.25309,-0.50978 -7.83472,-1.08387c-2.32021,-0.36264 -4.67249,-0.60988 -6.9999,-0.13554c-2.96749,0.60278 -5.93283,1.12195 -8.98179,0.84785c-4.36664,-0.44281 -8.63721,-1.40801 -12.9191,-2.34912c-4.04527,-0.86261 -8.09843,-1.68815 -12.13656,-2.58442c-3.89061,-0.85157 -7.79816,-1.66292 -11.60074,-2.86212c-3.80515,-1.27881 -7.48186,-2.84559 -10.78666,-5.16443c-2.87019,-1.70189 -5.69654,-3.74216 -9.03866,-4.36295l12.62083,-5.56584l0.00008,-0.0004z"/>
    <path id="svg_66" d="m491.384175,-1593.994577c0.94252,3.22937 2.68429,6.12004 4.10088,9.1467c1.95668,3.46478 3.01258,7.25921 3.80585,11.12726c0.70314,3.88911 1.155,7.81843 1.60559,11.74316c0.43743,4.09575 0.93605,8.18439 1.40805,12.27617c0.57635,4.34939 1.09561,8.69695 0.85614,13.0878c-0.11444,3.11568 -1.31694,5.95 -2.16078,8.8944c-0.50785,2.39225 -0.33434,4.82488 -0.1451,7.23934c0.38405,2.58876 0.2348,5.20163 0.2794,7.81046c0.0726,2.47361 -0.19135,4.94229 -0.54318,7.38765c-0.1556,1.46557 -0.53682,2.87185 -0.67767,4.34142l6.9647,-11.66307c0.24366,-1.43922 0.53274,-2.87166 0.66898,-4.32701c0.2968,-2.4622 0.43679,-4.95019 0.33909,-7.42982c-0.0305,-2.638 0.009,-5.27776 -0.3092,-7.90329c-0.13302,-2.34461 -0.14805,-4.7098 0.55256,-6.97937c0.8913,-2.89395 1.69918,-5.79397 1.72584,-8.85511c-0.0118,-4.38902 -0.55296,-8.73374 -1.069,-13.08734c-0.46117,-4.11044 -0.88467,-8.22508 -1.38002,-12.33171c-0.46537,-3.95544 -0.88904,-7.92377 -1.709,-11.82574c-0.89893,-3.91235 -2.09706,-7.72515 -4.08013,-11.24171c-1.41179,-3.02345 -3.16462,-6.03651 -3.45419,-9.42344l-6.7784,12.0132l-0.00041,0.00005z"/>
    <path id="svg_67" d="m526.848505,-1604.260567c0.94252,3.22937 2.68429,6.12004 4.10088,9.1467c1.95668,3.46478 3.01258,7.25921 3.80585,11.12726c0.70314,3.88911 1.155,7.81843 1.60559,11.74316c0.43743,4.09575 0.93605,8.18439 1.40805,12.27617c0.57635,4.34939 1.09561,8.69695 0.85614,13.0878c-0.11444,3.11568 -1.31694,5.95 -2.16078,8.8944c-0.50785,2.39225 -0.33434,4.82488 -0.1451,7.23934c0.38405,2.58876 0.2348,5.20163 0.2794,7.81046c0.0726,2.47361 -0.19135,4.94229 -0.54318,7.38765c-0.1556,1.46557 -0.53682,2.87185 -0.67767,4.34142l6.9647,-11.66307c0.24366,-1.43922 0.53274,-2.87166 0.66898,-4.32701c0.2968,-2.4622 0.43679,-4.95019 0.33909,-7.42982c-0.0305,-2.638 0.009,-5.27776 -0.3092,-7.90329c-0.13302,-2.34461 -0.14805,-4.7098 0.55256,-6.97937c0.8913,-2.89395 1.69918,-5.79397 1.72584,-8.85511c-0.0118,-4.38902 -0.55296,-8.73374 -1.069,-13.08734c-0.46117,-4.11044 -0.88467,-8.22508 -1.38002,-12.33171c-0.46537,-3.95544 -0.88904,-7.92377 -1.709,-11.82574c-0.89893,-3.91235 -2.09706,-7.72515 -4.08013,-11.24171c-1.41179,-3.02345 -3.16462,-6.03651 -3.45419,-9.42344l-6.7784,12.0132l-0.00041,0.00005z"/>
   </g>
   <g id="svg_68" transform="matrix(-1,0,0,1,1005.8919,150.25676) ">
    <path id="svg_69" d="m461.588902,-1623.889367c3.31597,0.56705 6.38685,1.96684 9.55565,3.02803c3.6658,1.54763 7.55608,2.1627 11.48947,2.50845c3.94401,0.25379 7.89922,0.25336 11.84974,0.25219c4.1189,-0.0338 8.23774,-0.006 12.35665,-0.005c4.38677,0.0752 8.76519,0.0939 13.09985,-0.64611c3.08215,-0.46997 5.76037,-1.9887 8.58896,-3.1637c2.31849,-0.77808 4.755,-0.88389 7.17526,-0.97199c2.6157,0.0855 5.19436,-0.36156 7.79118,-0.61558c2.46568,-0.21076 4.88798,-0.75526 7.27707,-1.38442c1.43816,-0.32217 2.79162,-0.8617 4.23545,-1.16968l-10.79013,8.25272c-1.40192,0.40664 -2.7919,0.85763 -4.22213,1.1594c-2.41211,0.57641 -4.86777,0.99999 -7.3423,1.18648c-2.62419,0.27133 -5.24216,0.61206 -7.88681,0.5966c-2.34444,0.13596 -4.69583,0.3915 -6.8704,1.34705c-2.77304,1.21638 -5.56165,2.35059 -8.59966,2.72712c-4.36158,0.49015 -8.73968,0.4494 -13.12374,0.43459c-4.13621,0.0119 -8.27229,0.0617 -12.40862,0.0392c-3.98271,-0.01 -7.97346,0.0229 -11.9436,-0.34548c-3.98948,-0.44565 -7.91428,-1.19991 -11.63454,-2.76784c-3.16506,-1.05679 -6.35879,-2.45357 -9.75662,-2.35394l11.15927,-8.10768l0,-0.00041z"/>
    <path id="svg_70" d="m463.724312,-1604.453837c3.1212,1.25511 5.82684,3.27235 8.69975,4.97934c3.25587,2.28748 6.92825,3.71092 10.6997,4.88023c3.80126,1.08168 7.6672,1.91725 11.52872,2.7511c4.03299,0.83755 8.05289,1.7353 12.07854,2.60687c4.27176,1.0007 8.54731,1.94442 12.94045,2.13732c3.11185,0.19211 6.05057,-0.72623 9.06361,-1.27683c2.43056,-0.27045 4.83439,0.14112 7.21859,0.56657c2.53854,0.63643 5.15343,0.74451 7.74527,1.0451c2.45452,0.31516 4.93718,0.29494 7.40528,0.18497c1.47376,-0.0109 2.91068,-0.25219 4.38699,-0.24804l-12.29068,5.78563c-1.4562,0.10114 -2.9101,0.24815 -4.3718,0.2408c-2.47945,0.0535 -4.96916,-0.0515 -7.4272,-0.39222c-2.62225,-0.28946 -5.25309,-0.50978 -7.83472,-1.08387c-2.32021,-0.36264 -4.67249,-0.60988 -6.9999,-0.13554c-2.96749,0.60278 -5.93283,1.12195 -8.98179,0.84785c-4.36664,-0.44281 -8.63721,-1.40801 -12.9191,-2.34912c-4.04527,-0.86261 -8.09843,-1.68815 -12.13656,-2.58442c-3.89061,-0.85157 -7.79816,-1.66292 -11.60074,-2.86212c-3.80515,-1.27881 -7.48186,-2.84559 -10.78666,-5.16443c-2.87019,-1.70189 -5.69654,-3.74216 -9.03866,-4.36295l12.62083,-5.56584l0.00008,-0.0004z"/>
    <path id="svg_71" d="m473.680912,-1628.525637c0.94252,3.22937 2.68429,6.12004 4.10088,9.1467c1.95668,3.46478 3.01258,7.25921 3.80585,11.12726c0.70314,3.88911 1.155,7.81843 1.60559,11.74316c0.43743,4.09575 0.93605,8.18439 1.40805,12.27617c0.57635,4.34939 1.09561,8.69695 0.85614,13.0878c-0.11444,3.11568 -1.31694,5.95 -2.16078,8.8944c-0.50785,2.39225 -0.33434,4.82488 -0.1451,7.23934c0.38405,2.58876 0.2348,5.20163 0.2794,7.81046c0.0726,2.47361 -0.19135,4.94229 -0.54318,7.38765c-0.1556,1.46557 -0.53682,2.87185 -0.67767,4.34142l6.9647,-11.66307c0.24366,-1.43922 0.53274,-2.87166 0.66898,-4.32701c0.2968,-2.4622 0.43679,-4.95019 0.33909,-7.42982c-0.0305,-2.638 0.009,-5.27776 -0.3092,-7.90329c-0.13302,-2.34461 -0.14805,-4.7098 0.55256,-6.97937c0.8913,-2.89395 1.69918,-5.79397 1.72584,-8.85511c-0.0118,-4.38902 -0.55296,-8.73374 -1.069,-13.08734c-0.46117,-4.11044 -0.88467,-8.22508 -1.38002,-12.33171c-0.46537,-3.95544 -0.88904,-7.92377 -1.709,-11.82574c-0.89893,-3.91235 -2.09706,-7.72515 -4.08013,-11.24171c-1.41179,-3.02345 -3.16462,-6.03651 -3.45419,-9.42344l-6.7784,12.0132l-0.00041,0.00005z"/>
    <path id="svg_72" d="m509.145242,-1638.791627c0.94252,3.22937 2.68429,6.12004 4.10088,9.1467c1.95668,3.46478 3.01258,7.25921 3.80585,11.12726c0.70314,3.88911 1.155,7.81843 1.60559,11.74316c0.43743,4.09575 0.93605,8.18439 1.40805,12.27617c0.57635,4.34939 1.09561,8.69695 0.85614,13.0878c-0.11444,3.11568 -1.31694,5.95 -2.16078,8.8944c-0.50785,2.39225 -0.33434,4.82488 -0.1451,7.23934c0.38405,2.58876 0.2348,5.20163 0.2794,7.81046c0.0726,2.47361 -0.19135,4.94229 -0.54318,7.38765c-0.1556,1.46557 -0.53682,2.87185 -0.67767,4.34142l6.9647,-11.66307c0.24366,-1.43922 0.53274,-2.87166 0.66898,-4.32701c0.2968,-2.4622 0.43679,-4.95019 0.33909,-7.42982c-0.0305,-2.638 0.009,-5.27776 -0.3092,-7.90329c-0.13302,-2.34461 -0.14805,-4.7098 0.55256,-6.97937c0.8913,-2.89395 1.69918,-5.79397 1.72584,-8.85511c-0.0118,-4.38902 -0.55296,-8.73374 -1.069,-13.08734c-0.46117,-4.11044 -0.88467,-8.22508 -1.38002,-12.33171c-0.46537,-3.95544 -0.88904,-7.92377 -1.709,-11.82574c-0.89893,-3.91235 -2.09706,-7.72515 -4.08013,-11.24171c-1.41179,-3.02345 -3.16462,-6.03651 -3.45419,-9.42344l-6.7784,12.0132l-0.00041,0.00005z"/>
   </g>
  </g>
  <path id="svg_73" fill="url(#linearGradient4004)" d="m36.047356,291.40704l612.60697,-132.18076l22.87744,0l-513.47141,139.80657l-122.013,-7.62581z"/>
 </g>
</svg>