<?xml version="1.0" encoding="UTF-8" standalone="no"?>
<svg width="640" xmlns="http://www.w3.org/2000/svg" xmlns:xlink="http://www.w3.org/1999/xlink" height="480">
 <defs>
  <linearGradient id="linearGradient5392" y2="9.4156" xlink:href="#linearGradient4163" x2="-3.2091" gradientTransform="matrix(.94215 .54395 -.54395 .94215 1911.7 -1337.7)" y1="9.4156" x1="-5.0689"/>
  <linearGradient id="linearGradient5390" y2="3.4969" xlink:href="#linearGradient4163" x2="-9.6673" gradientTransform="matrix(.94215 .54395 -.54395 .94215 1911.7 -1337.7)" y1="3.4969" x1="-10.186"/>
  <linearGradient id="linearGradient5386" y2="4.4735" xlink:href="#linearGradient4163" x2="-11.594" gradientTransform="matrix(.94215 .54395 -.54395 .94215 1911.7 -1337.7)" y1="4.4735" x1="-12.093"/>
  <linearGradient id="linearGradient5388" y2="7.5055" xlink:href="#linearGradient4163" x2="-4.2498" gradientTransform="matrix(.94215 .54395 -.54395 .94215 1911.7 -1337.7)" y1="7.5055" x1="-6.1438"/>
  <linearGradient id="linearGradient4163">
   <stop id="stop4165" stop-color="#fff" offset="0"/>
   <stop id="stop4167" stop-color="#eeeeec" stop-opacity="0" offset="1"/>
  </linearGradient>
  <linearGradient id="linearGradient5384" y2="1.6908" x2="-1.3122" gradientTransform="matrix(.94215 .54395 -.54395 .94215 1911.7 -1337.7)" y1="1.6908" x1="-1.2233">
   <stop id="stop4179" stop-color="#babdb6" offset="0"/>
   <stop id="stop4181" stop-color="#e5e6e4" offset="1"/>
  </linearGradient>
  <radialGradient id="radialGradient5394" xlink:href="#linearGradient4163" gradientUnits="userSpaceOnUse" cy="1148.7" cx="2421.4" gradientTransform="matrix(.46719 -.19375 .10811 .26069 -968.63 348.94)" r="455.86"/>
 </defs>
 <g id="g5375" stroke-linecap="round">
  <g stroke-linejoin="round" stroke="#babdb6">
   <path id="path4647" stroke-width="2.176" fill="#888a85" d="m280.91 14.315l-57.487 99.571c5.2106 37.777-1.4104 76.809-21.211 111.1-19.8 34.296-71.377 46.383-106.18 60.836l99.557 57.479c37.777-5.2106 76.612 1.2968 111.1 21.211 34.098 19.687 46.383 71.377 60.836 106.18l57.479-99.557c-5.2106-37.777 1.2967-76.612 21.211-111.1 19.687-34.099 71.39-46.375 106.2-60.828l-99.571-57.487c-37.777 5.2106-76.612-1.2967-111.1-21.211-34.099-19.687-46.375-71.39-60.828-106.2zm63.541 193.16c19.338 11.165 25.972 35.921 14.807 55.259s-35.921 25.971-55.259 14.806-25.971-35.921-14.806-55.259 35.921-25.971 55.259-14.806z"/>
   <path id="path4635" stroke-width="3" fill="url(#linearGradient5384)" d="m279.91 11.736l-57.487 99.571c5.2106 37.777-1.4104 76.809-21.211 111.1-19.8 34.296-71.377 46.383-106.18 60.836l99.557 57.479c37.777-5.2106 76.612 1.2967 111.1 21.211 34.099 19.687 46.383 71.377 60.836 106.18l57.479-99.557c-5.2106-37.777 1.2967-76.612 21.211-111.1 19.687-34.099 71.39-46.375 106.2-60.828l-99.571-57.487c-37.777 5.2106-76.612-1.2967-111.1-21.211-34.099-19.687-46.375-71.39-60.828-106.2zm63.541 193.16c19.338 11.165 25.971 35.921 14.807 55.259-11.165 19.338-35.921 25.971-55.259 14.807-19.338-11.165-25.971-35.921-14.807-55.259 11.165-19.338 35.921-25.971 55.259-14.806z"/>
  </g>
  <g stroke-width="2" stroke="#d3d7cf">
   <path id="path3191" fill="url(#linearGradient5386)" d="m279.92 11.73l-57.487 99.571c1.589 11.52 2.0806 23.137 1.4424 34.7l64.605-111.9c-2.8877-7.8644-5.6886-15.458-8.5598-22.372z"/>
   <path id="path3189" fill="url(#linearGradient5388)" d="m451.85 139.14c-11.521 1.589-23.136 2.0808-34.7 1.4424l111.89 64.597c7.8688-2.8891 15.468-5.6794 22.386-8.552l-99.571-57.487z"/>
   <path id="path3183" fill="url(#linearGradient5390)" d="m422.57 333.89l-64.589 111.87c2.8863 7.8615 5.6762 15.453 8.5462 22.365l57.487-99.571c-1.5874-11.509-2.0799-23.113-1.4443-34.665z"/>
   <path id="path3167" fill="url(#linearGradient5392)" d="m117.42 274.69c-7.868 2.8896-15.468 5.6794-22.386 8.552l99.557 57.479c11.521-1.589 23.136-2.0808 34.7-1.4424l-111.87-64.589z"/>
  </g>
  <path id="path5169" opacity=".785" stroke-linejoin="round" d="m279.91 11.736l-57.487 99.571c5.2106 37.777-1.4104 76.809-21.211 111.1-19.8 34.296-71.377 46.383-106.18 60.836l99.557 57.479c37.777-5.2106 76.612 1.2967 111.1 21.211 34.099 19.687 46.383 71.377 60.836 106.18l57.479-99.557c-5.2106-37.777 1.2967-76.612 21.211-111.1 19.687-34.099 71.39-46.375 106.2-60.828l-99.571-57.487c-37.777 5.2106-76.612-1.2967-111.1-21.211-34.099-19.687-46.375-71.39-60.828-106.2zm63.541 193.16c19.338 11.165 25.971 35.921 14.807 55.259-11.165 19.338-35.921 25.971-55.259 14.807-19.338-11.165-25.971-35.921-14.807-55.259 11.165-19.338 35.921-25.971 55.259-14.806z" stroke-width="3" fill="url(#radialGradient5394)"/>
 </g>
</svg>
